PathFileType	4	(X/Y/Z)	 2.5Hzhigh3min.trc
DataRate	CameraRate	NumFrames	NumMarkers	Units	OrigDataRate	OrigDataStartFrame	OrigNumFrames
200	200	8	43	m	200	626	1000
Frame#	Time	C7			LSH			RSH			MAN			RASI			LASI			HIPR			HIPL			RPSI			LPSI			COX			RTHI1			RTHI2			RTHI3			RTHI4			RLKN			RMKN			RSHA1			RSHA2			RSHA3			RSHA4			RLMAL			RMMAL			RHEEL			RMET5			RMET1			RTOE			LTHI1			LTHI2			LTHI3			LTHI4			LLKN			LMKN			LSHA1			LSHA2			LSHA3			LSHA4			LLMAL			LMMAL			LHEEL			LMET5			LMET1			LTOE			
		X1	Y1	Z1	X2	Y2	Z2	X3	Y3	Z3	X4	Y4	Z4	X5	Y5	Z5	X6	Y6	Z6	X7	Y7	Z7	X8	Y8	Z8	X9	Y9	Z9	X10	Y10	Z10	X11	Y11	Z11	X12	Y12	Z12	X13	Y13	Z13	X14	Y14	Z14	X15	Y15	Z15	X16	Y16	Z16	X17	Y17	Z17	X18	Y18	Z18	X19	Y19	Z19	X20	Y20	Z20	X21	Y21	Z21	X22	Y22	Z22	X23	Y23	Z23	X24	Y24	Z24	X25	Y25	Z25	X26	Y26	Z26	X27	Y27	Z27	X28	Y28	Z28	X29	Y29	Z29	X30	Y30	Z30	X31	Y31	Z31	X32	Y32	Z32	X33	Y33	Z33	X34	Y34	Z34	X35	Y35	Z35	X36	Y36	Z36	X37	Y37	Z37	X38	Y38	Z38	X39	Y39	Z39	X40	Y40	Z40	X41	Y41	Z41	X42	Y42	Z42	X43	Y43	Z43	
626	3.1300	-0.310103	1.513329	-0.537625	-0.258817	1.485152	-0.737239	-0.224653	1.475045	-0.338409	-0.172237	1.450136	-0.542136	-0.201251	0.996340	-0.414862	-0.224182	0.998435	-0.678488	-0.271091	1.069107	-0.370529	-0.278070	1.053509	-0.707038	-0.386871	1.025655	-0.474756	-0.391838	1.027112	-0.576012	-0.392226	1.022428	-0.529453	-0.279937	0.778320	-0.347875	-0.276434	0.717167	-0.351657	-0.205033	0.728996	-0.345331	-0.215673	0.787770	-0.343626	-0.253791	0.463052	-0.367186	-0.249507	0.458264	-0.498949	-0.376529	0.327051	-0.371541	-0.389956	0.288294	-0.383460	-0.336376	0.267977	-0.363996	-0.326014	0.306013	-0.357695	-0.426896	0.096602	-0.385101	-0.394033	0.101938	-0.478910	-0.482746	0.081233	-0.426583	-0.322461	0.033453	-0.353380	-0.269678	0.047486	-0.439191	-0.238458	0.037462	-0.432764	-0.329905	0.777898	-0.716572	-0.314922	0.718454	-0.724442	-0.255664	0.730488	-0.746787	-0.262212	0.790770	-0.742402	-0.279565	0.479458	-0.723799	-0.246855	0.468376	-0.595968	-0.397840	0.297653	-0.717591	-0.415581	0.262028	-0.707281	-0.360348	0.237580	-0.717240	-0.347832	0.278623	-0.726783	-0.443562	0.096601	-0.707719	-0.420829	0.092809	-0.617200	-0.501076	0.080267	-0.664312	-0.341324	0.036207	-0.740806	-0.289648	0.048967	-0.657849	-0.262187	0.038314	-0.659648	
627	3.1350	-0.310202	1.516136	-0.537402	-0.258845	1.488387	-0.737037	-0.224622	1.478065	-0.338228	-0.172250	1.453244	-0.541996	-0.200929	0.999242	-0.415070	-0.223787	1.001339	-0.678335	-0.270218	1.073170	-0.370462	-0.277645	1.057604	-0.706735	-0.386412	1.028809	-0.474733	-0.391366	1.030104	-0.576044	-0.391802	1.025463	-0.529444	-0.280492	0.781145	-0.348034	-0.277203	0.719979	-0.351861	-0.205777	0.731537	-0.345509	-0.216191	0.790356	-0.343778	-0.255401	0.465762	-0.367168	-0.251536	0.460846	-0.499060	-0.377445	0.329000	-0.371369	-0.390698	0.290136	-0.383205	-0.337003	0.270120	-0.363795	-0.326847	0.308280	-0.357453	-0.426609	0.098034	-0.384785	-0.393617	0.103346	-0.478490	-0.482220	0.082914	-0.426270	-0.322304	0.033528	-0.353519	-0.269590	0.047467	-0.439158	-0.238433	0.037472	-0.432800	-0.330079	0.780666	-0.716215	-0.315333	0.721152	-0.723986	-0.256008	0.732915	-0.746298	-0.262316	0.793220	-0.742000	-0.279967	0.482221	-0.723191	-0.247726	0.471235	-0.595414	-0.398222	0.299729	-0.717398	-0.415813	0.264077	-0.707158	-0.360489	0.239786	-0.717058	-0.348113	0.280886	-0.726605	-0.443102	0.098223	-0.707848	-0.420127	0.094668	-0.617369	-0.500401	0.082183	-0.664260	-0.341201	0.036247	-0.740546	-0.289361	0.048949	-0.657899	-0.262012	0.038324	-0.659647	
628	3.1400	-0.310287	1.519427	-0.537147	-0.258804	1.492128	-0.736788	-0.224510	1.481581	-0.338066	-0.172192	1.456901	-0.541839	-0.200595	1.002656	-0.415203	-0.223316	1.004682	-0.678203	-0.269150	1.077554	-0.370419	-0.276919	1.062030	-0.706458	-0.385917	1.032367	-0.474805	-0.390819	1.033510	-0.576147	-0.391314	1.028914	-0.529523	-0.281023	0.784447	-0.348134	-0.277957	0.723274	-0.351984	-0.206507	0.734532	-0.345625	-0.216684	0.793405	-0.343888	-0.257087	0.468965	-0.366997	-0.253730	0.464095	-0.499089	-0.378401	0.331395	-0.371021	-0.391450	0.292399	-0.382802	-0.337641	0.272732	-0.363402	-0.327690	0.310978	-0.357075	-0.426255	0.099822	-0.384341	-0.393072	0.105171	-0.477903	-0.481596	0.085009	-0.425803	-0.322102	0.033615	-0.353650	-0.269513	0.047464	-0.439094	-0.238420	0.037484	-0.432828	-0.330192	0.783891	-0.716014	-0.315695	0.724310	-0.723708	-0.256273	0.735795	-0.745898	-0.262327	0.796121	-0.741658	-0.280435	0.485464	-0.722699	-0.248781	0.474289	-0.595053	-0.398699	0.302176	-0.717361	-0.416156	0.266478	-0.707176	-0.360734	0.242372	-0.717064	-0.348520	0.283537	-0.726633	-0.442627	0.100164	-0.708135	-0.419394	0.096815	-0.617736	-0.499640	0.084469	-0.664353	-0.341057	0.036293	-0.740307	-0.289111	0.048897	-0.657986	-0.261894	0.038330	-0.659663	
629	3.1450	-0.310357	1.523155	-0.536866	-0.258704	1.496314	-0.736504	-0.224336	1.485542	-0.337923	-0.172171	1.460924	-0.541685	-0.200252	1.006511	-0.415266	-0.222781	1.008416	-0.678090	-0.267959	1.082189	-0.370418	-0.275951	1.066733	-0.706230	-0.385385	1.036309	-0.474975	-0.390203	1.037307	-0.576342	-0.390768	1.032756	-0.529700	-0.281548	0.788176	-0.348179	-0.278721	0.726997	-0.352019	-0.207245	0.737945	-0.345655	-0.217171	0.796872	-0.343941	-0.258911	0.472612	-0.366661	-0.256065	0.467940	-0.498998	-0.379416	0.334167	-0.370545	-0.392228	0.295032	-0.382275	-0.338294	0.275764	-0.362797	-0.328597	0.314081	-0.356547	-0.425835	0.101933	-0.383785	-0.392375	0.107387	-0.477150	-0.480826	0.087455	-0.425219	-0.321851	0.033730	-0.353775	-0.269428	0.047492	-0.438973	-0.238420	0.037498	-0.432842	-0.330263	0.787534	-0.715979	-0.316014	0.727889	-0.723620	-0.256471	0.739100	-0.745608	-0.262270	0.799442	-0.741395	-0.281091	0.489136	-0.722335	-0.250060	0.477526	-0.594862	-0.399284	0.304968	-0.717431	-0.416610	0.269221	-0.707276	-0.361088	0.245327	-0.717230	-0.349064	0.286559	-0.726837	-0.442135	0.102433	-0.708540	-0.418580	0.099198	-0.618272	-0.498778	0.087112	-0.664549	-0.340889	0.036370	-0.740098	-0.288903	0.048861	-0.658113	-0.261832	0.038345	-0.659702	
630	3.1500	-0.310411	1.527273	-0.536568	-0.258530	1.500891	-0.736178	-0.224128	1.489915	-0.337785	-0.172105	1.465324	-0.541507	-0.199921	1.010758	-0.415273	-0.222189	1.012498	-0.678000	-0.266710	1.087023	-0.370462	-0.274795	1.071678	-0.706057	-0.384813	1.040604	-0.475251	-0.389529	1.041466	-0.576631	-0.390168	1.036961	-0.529976	-0.282088	0.792290	-0.348171	-0.279527	0.731103	-0.351968	-0.208015	0.741720	-0.345581	-0.217668	0.800695	-0.343930	-0.260899	0.476646	-0.366163	-0.258534	0.472253	-0.498758	-0.380477	0.337242	-0.370001	-0.393036	0.297985	-0.381638	-0.338985	0.279140	-0.362008	-0.329581	0.317553	-0.355840	-0.425354	0.104353	-0.383141	-0.391513	0.109942	-0.476235	-0.479922	0.090212	-0.424522	-0.321553	0.033875	-0.353892	-0.269336	0.047512	-0.438780	-0.238433	0.037509	-0.432841	-0.330303	0.791551	-0.716106	-0.316295	0.731848	-0.723715	-0.256613	0.742795	-0.745436	-0.262163	0.803151	-0.741222	-0.282046	0.493175	-0.722113	-0.251575	0.480959	-0.594804	-0.399960	0.308082	-0.717567	-0.417148	0.272283	-0.707425	-0.361531	0.248640	-0.717549	-0.349725	0.289939	-0.727183	-0.441593	0.105040	-0.709047	-0.417666	0.101808	-0.618962	-0.497802	0.090082	-0.664820	-0.340681	0.036489	-0.739896	-0.288746	0.048850	-0.658280	-0.261826	0.038347	-0.659775	
631	3.1550	-0.310450	1.531716	-0.536260	-0.258312	1.505813	-0.735824	-0.223904	1.494645	-0.337647	-0.171998	1.470032	-0.541313	-0.199607	1.015342	-0.415241	-0.221540	1.016882	-0.677923	-0.265472	1.092029	-0.370553	-0.273477	1.076800	-0.705949	-0.384200	1.045217	-0.475629	-0.388797	1.045962	-0.577016	-0.389521	1.041505	-0.530352	-0.282662	0.796742	-0.348119	-0.280390	0.735539	-0.351832	-0.208844	0.745809	-0.345391	-0.218198	0.804828	-0.343848	-0.263074	0.481025	-0.365512	-0.261070	0.476908	-0.498353	-0.381600	0.340593	-0.369383	-0.393872	0.301219	-0.380901	-0.339718	0.282824	-0.361040	-0.330646	0.321335	-0.354986	-0.424765	0.107062	-0.382367	-0.390470	0.112770	-0.475166	-0.478855	0.093249	-0.423754	-0.321218	0.034034	-0.353992	-0.269239	0.047563	-0.438542	-0.238447	0.037544	-0.432803	-0.330321	0.795901	-0.716381	-0.316545	0.736146	-0.723974	-0.256713	0.746841	-0.745384	-0.262022	0.807205	-0.741144	-0.283374	0.497520	-0.722043	-0.253309	0.484618	-0.594838	-0.400694	0.311488	-0.717744	-0.417725	0.275632	-0.707603	-0.362021	0.252261	-0.717994	-0.350464	0.293656	-0.727647	-0.440972	0.107954	-0.709641	-0.416621	0.104672	-0.619785	-0.496702	0.093327	-0.665136	-0.340446	0.036635	-0.739710	-0.288637	0.048869	-0.658481	-0.261853	0.038355	-0.659878	
632	3.1600	-0.310466	1.536441	-0.535947	-0.258052	1.511023	-0.735439	-0.223689	1.499686	-0.337502	-0.171861	1.475009	-0.541069	-0.199317	1.020210	-0.415192	-0.220853	1.021515	-0.677848	-0.264303	1.097186	-0.370685	-0.272052	1.082062	-0.705915	-0.383551	1.050129	-0.476091	-0.388008	1.050782	-0.577491	-0.388830	1.046366	-0.530818	-0.283286	0.801478	-0.348034	-0.281327	0.740255	-0.351623	-0.209746	0.750159	-0.345076	-0.218788	0.809222	-0.343684	-0.265422	0.485700	-0.364735	-0.263607	0.481774	-0.497789	-0.382769	0.344163	-0.368709	-0.394714	0.304647	-0.380115	-0.340513	0.286774	-0.359914	-0.331751	0.325366	-0.354000	-0.424058	0.110009	-0.381512	-0.389247	0.115806	-0.473932	-0.477613	0.096519	-0.422914	-0.320855	0.034205	-0.354070	-0.269119	0.047657	-0.438241	-0.238483	0.037580	-0.432752	-0.330325	0.800541	-0.716780	-0.316770	0.740739	-0.724369	-0.256784	0.751191	-0.745444	-0.261861	0.811563	-0.741158	-0.285102	0.502115	-0.722130	-0.255213	0.488542	-0.594926	-0.401449	0.315145	-0.717948	-0.418303	0.279218	-0.707812	-0.362512	0.256157	-0.718550	-0.351236	0.297645	-0.728202	-0.440237	0.111149	-0.710307	-0.415408	0.107784	-0.620714	-0.495465	0.096815	-0.665491	-0.340179	0.036821	-0.739561	-0.288565	0.048902	-0.658727	-0.261884	0.038367	-0.660018	
633	3.1650	-0.310460	1.541399	-0.535636	-0.257774	1.516466	-0.735030	-0.223500	1.504985	-0.337346	-0.171680	1.480163	-0.540772	-0.199057	1.025293	-0.415144	-0.220132	1.026352	-0.677768	-0.263241	1.102472	-0.370849	-0.270558	1.087437	-0.705959	-0.382873	1.055312	-0.476623	-0.387174	1.055890	-0.578030	-0.388105	1.051524	-0.531350	-0.283971	0.806447	-0.347929	-0.282345	0.745203	-0.351355	-0.210729	0.754731	-0.344641	-0.219441	0.813834	-0.343446	-0.267910	0.490611	-0.363854	-0.266086	0.486739	-0.497073	-0.383961	0.347926	-0.367954	-0.395560	0.308260	-0.379251	-0.341313	0.290936	-0.358655	-0.332903	0.329626	-0.352876	-0.423203	0.113175	-0.380577	-0.387823	0.119023	-0.472545	-0.476182	0.100004	-0.422003	-0.320445	0.034416	-0.354140	-0.268972	0.047762	-0.437860	-0.238529	0.037620	-0.432670	-0.330318	0.805431	-0.717272	-0.316981	0.745582	-0.724867	-0.256844	0.755799	-0.745607	-0.261689	0.816175	-0.741258	-0.287199	0.506913	-0.722364	-0.257218	0.492766	-0.595035	-0.402186	0.319006	-0.718168	-0.418830	0.283000	-0.708040	-0.362959	0.260279	-0.719197	-0.351989	0.301872	-0.728822	-0.439359	0.114560	-0.711037	-0.413990	0.111149	-0.621739	-0.494074	0.100501	-0.665868	-0.339839	0.037080	-0.739419	-0.288453	0.049024	-0.658996	-0.261899	0.038424	-0.660233	
